<svg xmlns="http://www.w3.org/2000/svg" fill-rule="evenodd" stroke-linejoin="round" stroke-miterlimit="1.414" clip-rule="evenodd" viewBox="0 0 32 32"><rect width="32" height="32" fill="none"></rect><path fill="#165df5" fill-rule="nonzero" d="M16.07,2.982c4.453,0.031 9.116,1.855 11.504,5.43c1.167,1.747 1.712,3.946 1.277,5.986c-0.61,2.868 -2.705,5.145 -5.206,7.064c-1.322,1.011 -2.646,2.019 -3.804,3.202c-1.146,1.171 -2.135,2.487 -3.002,3.887c0,0 -0.036,0.087 -0.183,0.218c-0.331,0.298 -0.865,0.335 -1.235,0.08c-0.459,-0.315 -0.527,-0.967 -0.197,-1.495c1.508,-2.411 3.446,-4.547 5.721,-6.342c1.977,-1.56 4.219,-2.931 5.344,-5.292c0.729,-1.529 0.958,-3.301 0.262,-4.994c-0.948,-2.31 -3.123,-3.926 -5.452,-4.821c-4.442,-1.707 -9.951,-1.158 -13.543,1.952c-1.531,1.326 -2.654,3.248 -2.583,5.34c0.078,2.326 1.655,4.435 3.646,5.744c2.156,1.418 4.793,2.064 7.371,2.071c0,0 0.093,-0.015 0.282,0.041c0.694,0.205 0.949,1.267 0.333,1.749c-0.399,0.313 -1.015,0.218 -1.599,0.185c-4.22,-0.241 -8.554,-2.073 -10.782,-5.679c-1.388,-2.246 -1.629,-5.17 -0.551,-7.582c1.959,-4.383 7.4,-6.756 12.397,-6.744Z" class="color546e7a svgShape"></path><path fill="#52cc99" d="M19.994,12.998c-0.552,0 -1.001,0.449 -1.001,1.002c0,0.553 0.449,1.002 1.001,1.002c0.553,0 1.002,-0.449 1.002,-1.002c0,-0.553 -0.449,-1.002 -1.002,-1.002Zm-4.006,0c-0.553,0 -1.002,0.449 -1.002,1.002c0,0.553 0.449,1.002 1.002,1.002c0.553,0 1.001,-0.449 1.001,-1.002c0,-0.553 -0.448,-1.002 -1.001,-1.002Zm-4.007,0c-0.553,0 -1.002,0.449 -1.002,1.002c0,0.553 0.449,1.002 1.002,1.002c0.553,0 1.002,-0.449 1.002,-1.002c0,-0.553 -0.449,-1.002 -1.002,-1.002Z" class="color1de9b6 svgShape"></path></svg>