<svg xmlns="http://www.w3.org/2000/svg" fill-rule="evenodd" stroke-linejoin="round" stroke-miterlimit="1.414" clip-rule="evenodd" viewBox="0 0 32 32"><rect width="32" height="32" fill="none"></rect><path fill="#52cc99" fill-rule="nonzero" d="M10.048,13.005c0.244,0.02 0.473,0.122 0.652,0.291l4.005,4.006c0.525,0.556 0.192,1.661 -0.652,1.708c-0.281,0.016 -0.497,-0.04 -0.764,-0.292l-3.298,-3.297l-3.297,3.297c0,0 -0.831,0.525 -1.376,0.039c-0.403,-0.361 -0.43,-1.043 -0.04,-1.455l4.005,-4.006c0.206,-0.194 0.477,-0.299 0.765,-0.291Z" class="color1de9b6 svgShape"></path><path fill="#165df5" fill-rule="nonzero" d="M11.006,16.436c0.003,0.052 0.007,0.105 0.011,0.156c0.218,2.644 2.076,5.085 4.576,6c1.965,0.72 4.253,0.498 6.042,-0.59c3.044,-1.85 4.318,-6.188 2.471,-9.446c-1.213,-2.139 -3.58,-3.551 -6.106,-3.559c0,0 -0.942,-0.209 -0.996,-0.926c-0.037,-0.493 0.344,-0.987 0.845,-1.065c0.086,-0.013 0.115,-0.012 0.212,-0.011c3.613,0.034 7.074,2.405 8.369,5.81c1.063,2.797 0.621,6.121 -1.174,8.551c-1.221,1.652 -3.016,2.869 -5.002,3.38c-3.208,0.826 -6.838,-0.289 -9.03,-2.789c-1.335,-1.523 -2.131,-3.506 -2.225,-5.534l0.992,-0.992l1.015,1.015Z" class="color546e7a svgShape"></path></svg>